<?xml version="1.0" encoding="utf-8" standalone="no"?>
<!DOCTYPE svg PUBLIC "-//W3C//DTD SVG 1.1//EN"
  "http://www.w3.org/Graphics/SVG/1.1/DTD/svg11.dtd">
<svg xmlns:xlink="http://www.w3.org/1999/xlink" width="864pt" height="360pt" viewBox="0 0 864 360" xmlns="http://www.w3.org/2000/svg" version="1.1">
 <metadata>
  <rdf:RDF xmlns:dc="http://purl.org/dc/elements/1.1/" xmlns:cc="http://creativecommons.org/ns#" xmlns:rdf="http://www.w3.org/1999/02/22-rdf-syntax-ns#">
   <cc:Work>
    <dc:type rdf:resource="http://purl.org/dc/dcmitype/StillImage"/>
    <dc:date>2026-07-27T08:36:05.890253</dc:date>
    <dc:format>image/svg+xml</dc:format>
    <dc:creator>
     <cc:Agent>
      <dc:title>Matplotlib v3.11.1, https://matplotlib.org/</dc:title>
     </cc:Agent>
    </dc:creator>
   </cc:Work>
  </rdf:RDF>
 </metadata>
 <defs>
  <style type="text/css">*{stroke-linejoin: round; stroke-linecap: butt}</style>
 </defs>
 <g id="figure_1">
  <g id="patch_1">
   <path d="M 0 360 
L 864 360 
L 864 0 
L 0 0 
L 0 360 
z
" style="fill: none; opacity: 0"/>
  </g>
  <g id="axes_1">
   <g id="patch_2">
    <path d="M 108 320.4 
L 777.6 320.4 
L 777.6 43.2 
L 108 43.2 
L 108 320.4 
z
" style="fill: none; opacity: 0"/>
   </g>
   <g id="matplotlib.axis_1">
    <g id="xtick_1">
     <g id="line2d_1">
      <path d="M 192.020339 320.4 
L 192.020339 43.2 
" clip-path="url(#p72efc7a78e)" style="fill: none; stroke-dasharray: 5.12,1.28,0.8,1.28; stroke-dashoffset: 0; stroke: #b0b0b0; stroke-width: 0.8"/>
     </g>
     <g id="line2d_2">
      <defs>
       <path id="m51c001e201" d="M 0 0 
L 0 3.5 
" style="stroke: #a9a9a9; stroke-width: 0.8"/>
      </defs>
      <g>
       <use xlink:href="#m51c001e201" x="192.020339" y="320.4" style="fill: #a9a9a9; stroke: #a9a9a9; stroke-width: 0.8"/>
      </g>
     </g>
     <g id="text_1">
      <!-- 2022 -->
      <g style="fill: #a9a9a9" transform="translate(179.295339 334.997656) scale(0.1 -0.1)">
       <defs>
        <path id="DejaVuSans-15" d="M 1228 531 
L 3431 531 
L 3431 0 
L 469 0 
L 469 531 
Q 828 903 1448 1529 
Q 2069 2156 2228 2338 
Q 2531 2678 2651 2914 
Q 2772 3150 2772 3378 
Q 2772 3750 2511 3984 
Q 2250 4219 1831 4219 
Q 1534 4219 1204 4116 
Q 875 4013 500 3803 
L 500 4441 
Q 881 4594 1212 4672 
Q 1544 4750 1819 4750 
Q 2544 4750 2975 4387 
Q 3406 4025 3406 3419 
Q 3406 3131 3298 2873 
Q 3191 2616 2906 2266 
Q 2828 2175 2409 1742 
Q 1991 1309 1228 531 
z
" transform="scale(0.015625)"/>
        <path id="DejaVuSans-13" d="M 2034 4250 
Q 1547 4250 1301 3770 
Q 1056 3291 1056 2328 
Q 1056 1369 1301 889 
Q 1547 409 2034 409 
Q 2525 409 2770 889 
Q 3016 1369 3016 2328 
Q 3016 3291 2770 3770 
Q 2525 4250 2034 4250 
z
M 2034 4750 
Q 2819 4750 3233 4129 
Q 3647 3509 3647 2328 
Q 3647 1150 3233 529 
Q 2819 -91 2034 -91 
Q 1250 -91 836 529 
Q 422 1150 422 2328 
Q 422 3509 836 4129 
Q 1250 4750 2034 4750 
z
" transform="scale(0.015625)"/>
       </defs>
       <use xlink:href="#DejaVuSans-15"/>
       <use xlink:href="#DejaVuSans-13" transform="translate(63.625 0)"/>
       <use xlink:href="#DejaVuSans-15" transform="translate(127.25 0)"/>
       <use xlink:href="#DejaVuSans-15" transform="translate(190.875 0)"/>
      </g>
     </g>
    </g>
    <g id="xtick_2">
     <g id="line2d_3">
      <path d="M 313.499538 320.4 
L 313.499538 43.2 
" clip-path="url(#p72efc7a78e)" style="fill: none; stroke-dasharray: 5.12,1.28,0.8,1.28; stroke-dashoffset: 0; stroke: #b0b0b0; stroke-width: 0.8"/>
     </g>
     <g id="line2d_4">
      <g>
       <use xlink:href="#m51c001e201" x="313.499538" y="320.4" style="fill: #a9a9a9; stroke: #a9a9a9; stroke-width: 0.8"/>
      </g>
     </g>
     <g id="text_2">
      <!-- 2023 -->
      <g style="fill: #a9a9a9" transform="translate(300.774538 334.997656) scale(0.1 -0.1)">
       <defs>
        <path id="DejaVuSans-16" d="M 2597 2516 
Q 3050 2419 3304 2112 
Q 3559 1806 3559 1356 
Q 3559 666 3084 287 
Q 2609 -91 1734 -91 
Q 1441 -91 1130 -33 
Q 819 25 488 141 
L 488 750 
Q 750 597 1062 519 
Q 1375 441 1716 441 
Q 2309 441 2620 675 
Q 2931 909 2931 1356 
Q 2931 1769 2642 2001 
Q 2353 2234 1838 2234 
L 1294 2234 
L 1294 2753 
L 1863 2753 
Q 2328 2753 2575 2939 
Q 2822 3125 2822 3475 
Q 2822 3834 2567 4026 
Q 2313 4219 1838 4219 
Q 1578 4219 1281 4162 
Q 984 4106 628 3988 
L 628 4550 
Q 988 4650 1302 4700 
Q 1616 4750 1894 4750 
Q 2613 4750 3031 4423 
Q 3450 4097 3450 3541 
Q 3450 3153 3228 2886 
Q 3006 2619 2597 2516 
z
" transform="scale(0.015625)"/>
       </defs>
       <use xlink:href="#DejaVuSans-15"/>
       <use xlink:href="#DejaVuSans-13" transform="translate(63.625 0)"/>
       <use xlink:href="#DejaVuSans-15" transform="translate(127.25 0)"/>
       <use xlink:href="#DejaVuSans-16" transform="translate(190.875 0)"/>
      </g>
     </g>
    </g>
    <g id="xtick_3">
     <g id="line2d_5">
      <path d="M 434.978737 320.4 
L 434.978737 43.2 
" clip-path="url(#p72efc7a78e)" style="fill: none; stroke-dasharray: 5.12,1.28,0.8,1.28; stroke-dashoffset: 0; stroke: #b0b0b0; stroke-width: 0.8"/>
     </g>
     <g id="line2d_6">
      <g>
       <use xlink:href="#m51c001e201" x="434.978737" y="320.4" style="fill: #a9a9a9; stroke: #a9a9a9; stroke-width: 0.8"/>
      </g>
     </g>
     <g id="text_3">
      <!-- 2024 -->
      <g style="fill: #a9a9a9" transform="translate(422.253737 334.997656) scale(0.1 -0.1)">
       <defs>
        <path id="DejaVuSans-17" d="M 2419 4116 
L 825 1625 
L 2419 1625 
L 2419 4116 
z
M 2253 4666 
L 3047 4666 
L 3047 1625 
L 3713 1625 
L 3713 1100 
L 3047 1100 
L 3047 0 
L 2419 0 
L 2419 1100 
L 313 1100 
L 313 1709 
L 2253 4666 
z
" transform="scale(0.015625)"/>
       </defs>
       <use xlink:href="#DejaVuSans-15"/>
       <use xlink:href="#DejaVuSans-13" transform="translate(63.625 0)"/>
       <use xlink:href="#DejaVuSans-15" transform="translate(127.25 0)"/>
       <use xlink:href="#DejaVuSans-17" transform="translate(190.875 0)"/>
      </g>
     </g>
    </g>
    <g id="xtick_4">
     <g id="line2d_7">
      <path d="M 556.790755 320.4 
L 556.790755 43.2 
" clip-path="url(#p72efc7a78e)" style="fill: none; stroke-dasharray: 5.12,1.28,0.8,1.28; stroke-dashoffset: 0; stroke: #b0b0b0; stroke-width: 0.8"/>
     </g>
     <g id="line2d_8">
      <g>
       <use xlink:href="#m51c001e201" x="556.790755" y="320.4" style="fill: #a9a9a9; stroke: #a9a9a9; stroke-width: 0.8"/>
      </g>
     </g>
     <g id="text_4">
      <!-- 2025 -->
      <g style="fill: #a9a9a9" transform="translate(544.065755 334.997656) scale(0.1 -0.1)">
       <defs>
        <path id="DejaVuSans-18" d="M 691 4666 
L 3169 4666 
L 3169 4134 
L 1269 4134 
L 1269 2991 
Q 1406 3038 1543 3061 
Q 1681 3084 1819 3084 
Q 2600 3084 3056 2656 
Q 3513 2228 3513 1497 
Q 3513 744 3044 326 
Q 2575 -91 1722 -91 
Q 1428 -91 1123 -41 
Q 819 9 494 109 
L 494 744 
Q 775 591 1075 516 
Q 1375 441 1709 441 
Q 2250 441 2565 725 
Q 2881 1009 2881 1497 
Q 2881 1984 2565 2268 
Q 2250 2553 1709 2553 
Q 1456 2553 1204 2497 
Q 953 2441 691 2322 
L 691 4666 
z
" transform="scale(0.015625)"/>
       </defs>
       <use xlink:href="#DejaVuSans-15"/>
       <use xlink:href="#DejaVuSans-13" transform="translate(63.625 0)"/>
       <use xlink:href="#DejaVuSans-15" transform="translate(127.25 0)"/>
       <use xlink:href="#DejaVuSans-18" transform="translate(190.875 0)"/>
      </g>
     </g>
    </g>
    <g id="xtick_5">
     <g id="line2d_9">
      <path d="M 678.269954 320.4 
L 678.269954 43.2 
" clip-path="url(#p72efc7a78e)" style="fill: none; stroke-dasharray: 5.12,1.28,0.8,1.28; stroke-dashoffset: 0; stroke: #b0b0b0; stroke-width: 0.8"/>
     </g>
     <g id="line2d_10">
      <g>
       <use xlink:href="#m51c001e201" x="678.269954" y="320.4" style="fill: #a9a9a9; stroke: #a9a9a9; stroke-width: 0.8"/>
      </g>
     </g>
     <g id="text_5">
      <!-- 2026 -->
      <g style="fill: #a9a9a9" transform="translate(665.544954 334.997656) scale(0.1 -0.1)">
       <defs>
        <path id="DejaVuSans-19" d="M 2113 2584 
Q 1688 2584 1439 2293 
Q 1191 2003 1191 1497 
Q 1191 994 1439 701 
Q 1688 409 2113 409 
Q 2538 409 2786 701 
Q 3034 994 3034 1497 
Q 3034 2003 2786 2293 
Q 2538 2584 2113 2584 
z
M 3366 4563 
L 3366 3988 
Q 3128 4100 2886 4159 
Q 2644 4219 2406 4219 
Q 1781 4219 1451 3797 
Q 1122 3375 1075 2522 
Q 1259 2794 1537 2939 
Q 1816 3084 2150 3084 
Q 2853 3084 3261 2657 
Q 3669 2231 3669 1497 
Q 3669 778 3244 343 
Q 2819 -91 2113 -91 
Q 1303 -91 875 529 
Q 447 1150 447 2328 
Q 447 3434 972 4092 
Q 1497 4750 2381 4750 
Q 2619 4750 2861 4703 
Q 3103 4656 3366 4563 
z
" transform="scale(0.015625)"/>
       </defs>
       <use xlink:href="#DejaVuSans-15"/>
       <use xlink:href="#DejaVuSans-13" transform="translate(63.625 0)"/>
       <use xlink:href="#DejaVuSans-15" transform="translate(127.25 0)"/>
       <use xlink:href="#DejaVuSans-19" transform="translate(190.875 0)"/>
      </g>
     </g>
    </g>
   </g>
   <g id="matplotlib.axis_2">
    <g id="ytick_1">
     <g id="line2d_11">
      <path d="M 108 307.827559 
L 777.6 307.827559 
" clip-path="url(#p72efc7a78e)" style="fill: none; stroke-dasharray: 5.12,1.28,0.8,1.28; stroke-dashoffset: 0; stroke: #b0b0b0; stroke-width: 0.8"/>
     </g>
     <g id="line2d_12">
      <defs>
       <path id="m45e5c4e124" d="M 0 0 
L -3.5 0 
" style="stroke: #a9a9a9; stroke-width: 0.8"/>
      </defs>
      <g>
       <use xlink:href="#m45e5c4e124" x="108" y="307.827559" style="fill: #a9a9a9; stroke: #a9a9a9; stroke-width: 0.8"/>
      </g>
     </g>
     <g id="text_6">
      <!-- 0 -->
      <g style="fill: #a9a9a9" transform="translate(94.6375 311.626387) scale(0.1 -0.1)">
       <use xlink:href="#DejaVuSans-13"/>
      </g>
     </g>
    </g>
    <g id="ytick_2">
     <g id="line2d_13">
      <path d="M 108 266.488976 
L 777.6 266.488976 
" clip-path="url(#p72efc7a78e)" style="fill: none; stroke-dasharray: 5.12,1.28,0.8,1.28; stroke-dashoffset: 0; stroke: #b0b0b0; stroke-width: 0.8"/>
     </g>
     <g id="line2d_14">
      <g>
       <use xlink:href="#m45e5c4e124" x="108" y="266.488976" style="fill: #a9a9a9; stroke: #a9a9a9; stroke-width: 0.8"/>
      </g>
     </g>
     <g id="text_7">
      <!-- 1500 -->
      <g style="fill: #a9a9a9" transform="translate(75.55 270.287805) scale(0.1 -0.1)">
       <defs>
        <path id="DejaVuSans-14" d="M 794 531 
L 1825 531 
L 1825 4091 
L 703 3866 
L 703 4441 
L 1819 4666 
L 2450 4666 
L 2450 531 
L 3481 531 
L 3481 0 
L 794 0 
L 794 531 
z
" transform="scale(0.015625)"/>
       </defs>
       <use xlink:href="#DejaVuSans-14"/>
       <use xlink:href="#DejaVuSans-18" transform="translate(63.625 0)"/>
       <use xlink:href="#DejaVuSans-13" transform="translate(127.25 0)"/>
       <use xlink:href="#DejaVuSans-13" transform="translate(190.875 0)"/>
      </g>
     </g>
    </g>
    <g id="ytick_3">
     <g id="line2d_15">
      <path d="M 108 225.150394 
L 777.6 225.150394 
" clip-path="url(#p72efc7a78e)" style="fill: none; stroke-dasharray: 5.12,1.28,0.8,1.28; stroke-dashoffset: 0; stroke: #b0b0b0; stroke-width: 0.8"/>
     </g>
     <g id="line2d_16">
      <g>
       <use xlink:href="#m45e5c4e124" x="108" y="225.150394" style="fill: #a9a9a9; stroke: #a9a9a9; stroke-width: 0.8"/>
      </g>
     </g>
     <g id="text_8">
      <!-- 3000 -->
      <g style="fill: #a9a9a9" transform="translate(75.55 228.949222) scale(0.1 -0.1)">
       <use xlink:href="#DejaVuSans-16"/>
       <use xlink:href="#DejaVuSans-13" transform="translate(63.625 0)"/>
       <use xlink:href="#DejaVuSans-13" transform="translate(127.25 0)"/>
       <use xlink:href="#DejaVuSans-13" transform="translate(190.875 0)"/>
      </g>
     </g>
    </g>
    <g id="ytick_4">
     <g id="line2d_17">
      <path d="M 108 183.811811 
L 777.6 183.811811 
" clip-path="url(#p72efc7a78e)" style="fill: none; stroke-dasharray: 5.12,1.28,0.8,1.28; stroke-dashoffset: 0; stroke: #b0b0b0; stroke-width: 0.8"/>
     </g>
     <g id="line2d_18">
      <g>
       <use xlink:href="#m45e5c4e124" x="108" y="183.811811" style="fill: #a9a9a9; stroke: #a9a9a9; stroke-width: 0.8"/>
      </g>
     </g>
     <g id="text_9">
      <!-- 4500 -->
      <g style="fill: #a9a9a9" transform="translate(75.55 187.610639) scale(0.1 -0.1)">
       <use xlink:href="#DejaVuSans-17"/>
       <use xlink:href="#DejaVuSans-18" transform="translate(63.625 0)"/>
       <use xlink:href="#DejaVuSans-13" transform="translate(127.25 0)"/>
       <use xlink:href="#DejaVuSans-13" transform="translate(190.875 0)"/>
      </g>
     </g>
    </g>
    <g id="ytick_5">
     <g id="line2d_19">
      <path d="M 108 142.473228 
L 777.6 142.473228 
" clip-path="url(#p72efc7a78e)" style="fill: none; stroke-dasharray: 5.12,1.28,0.8,1.28; stroke-dashoffset: 0; stroke: #b0b0b0; stroke-width: 0.8"/>
     </g>
     <g id="line2d_20">
      <g>
       <use xlink:href="#m45e5c4e124" x="108" y="142.473228" style="fill: #a9a9a9; stroke: #a9a9a9; stroke-width: 0.8"/>
      </g>
     </g>
     <g id="text_10">
      <!-- 6000 -->
      <g style="fill: #a9a9a9" transform="translate(75.55 146.272056) scale(0.1 -0.1)">
       <use xlink:href="#DejaVuSans-19"/>
       <use xlink:href="#DejaVuSans-13" transform="translate(63.625 0)"/>
       <use xlink:href="#DejaVuSans-13" transform="translate(127.25 0)"/>
       <use xlink:href="#DejaVuSans-13" transform="translate(190.875 0)"/>
      </g>
     </g>
    </g>
    <g id="ytick_6">
     <g id="line2d_21">
      <path d="M 108 101.134646 
L 777.6 101.134646 
" clip-path="url(#p72efc7a78e)" style="fill: none; stroke-dasharray: 5.12,1.28,0.8,1.28; stroke-dashoffset: 0; stroke: #b0b0b0; stroke-width: 0.8"/>
     </g>
     <g id="line2d_22">
      <g>
       <use xlink:href="#m45e5c4e124" x="108" y="101.134646" style="fill: #a9a9a9; stroke: #a9a9a9; stroke-width: 0.8"/>
      </g>
     </g>
     <g id="text_11">
      <!-- 7500 -->
      <g style="fill: #a9a9a9" transform="translate(75.55 104.933474) scale(0.1 -0.1)">
       <defs>
        <path id="DejaVuSans-1a" d="M 525 4666 
L 3525 4666 
L 3525 4397 
L 1831 0 
L 1172 0 
L 2766 4134 
L 525 4134 
L 525 4666 
z
" transform="scale(0.015625)"/>
       </defs>
       <use xlink:href="#DejaVuSans-1a"/>
       <use xlink:href="#DejaVuSans-18" transform="translate(63.625 0)"/>
       <use xlink:href="#DejaVuSans-13" transform="translate(127.25 0)"/>
       <use xlink:href="#DejaVuSans-13" transform="translate(190.875 0)"/>
      </g>
     </g>
    </g>
    <g id="ytick_7">
     <g id="line2d_23">
      <path d="M 108 59.796063 
L 777.6 59.796063 
" clip-path="url(#p72efc7a78e)" style="fill: none; stroke-dasharray: 5.12,1.28,0.8,1.28; stroke-dashoffset: 0; stroke: #b0b0b0; stroke-width: 0.8"/>
     </g>
     <g id="line2d_24">
      <g>
       <use xlink:href="#m45e5c4e124" x="108" y="59.796063" style="fill: #a9a9a9; stroke: #a9a9a9; stroke-width: 0.8"/>
      </g>
     </g>
     <g id="text_12">
      <!-- 9000 -->
      <g style="fill: #a9a9a9" transform="translate(75.55 63.594891) scale(0.1 -0.1)">
       <defs>
        <path id="DejaVuSans-1c" d="M 703 97 
L 703 672 
Q 941 559 1184 500 
Q 1428 441 1663 441 
Q 2288 441 2617 861 
Q 2947 1281 2994 2138 
Q 2813 1869 2534 1725 
Q 2256 1581 1919 1581 
Q 1219 1581 811 2004 
Q 403 2428 403 3163 
Q 403 3881 828 4315 
Q 1253 4750 1959 4750 
Q 2769 4750 3195 4129 
Q 3622 3509 3622 2328 
Q 3622 1225 3098 567 
Q 2575 -91 1691 -91 
Q 1453 -91 1209 -44 
Q 966 3 703 97 
z
M 1959 2075 
Q 2384 2075 2632 2365 
Q 2881 2656 2881 3163 
Q 2881 3666 2632 3958 
Q 2384 4250 1959 4250 
Q 1534 4250 1286 3958 
Q 1038 3666 1038 3163 
Q 1038 2656 1286 2365 
Q 1534 2075 1959 2075 
z
" transform="scale(0.015625)"/>
       </defs>
       <use xlink:href="#DejaVuSans-1c"/>
       <use xlink:href="#DejaVuSans-13" transform="translate(63.625 0)"/>
       <use xlink:href="#DejaVuSans-13" transform="translate(127.25 0)"/>
       <use xlink:href="#DejaVuSans-13" transform="translate(190.875 0)"/>
      </g>
     </g>
    </g>
   </g>
   <g id="line2d_25">
    <path d="M 138.436364 307.744882 
L 140.433282 307.551969 
L 140.766102 307.386614 
L 142.4302 307.138583 
L 143.761479 306.807874 
L 145.758398 306.614961 
L 146.424037 306.311811 
L 146.756857 305.815748 
L 147.089676 305.567717 
L 147.422496 304.740945 
L 147.755316 304.685827 
L 151.083513 302.288189 
L 152.414792 301.599213 
L 152.747612 301.048031 
L 153.413251 300.49685 
L 154.078891 300.276378 
L 155.410169 300.055906 
L 163.730663 298.622835 
L 164.063482 298.429921 
L 164.729122 298.209449 
L 166.39322 297.87874 
L 167.39168 297.685827 
L 168.057319 297.465354 
L 173.049615 296.555906 
L 173.715254 296.335433 
L 174.048074 295.811811 
L 175.046533 295.370866 
L 176.044992 295.067717 
L 176.377812 294.874803 
L 177.043451 294.737008 
L 178.70755 294.296063 
L 179.706009 294.048031 
L 181.037288 293.717323 
L 181.370108 293.689764 
L 182.035747 293.359055 
L 182.368567 293.303937 
L 182.701387 293.111024 
L 187.028043 292.311811 
L 188.359322 291.677953 
L 189.024961 291.485039 
L 189.690601 291.18189 
L 190.35624 290.685827 
L 192.020339 290.3 
L 192.685978 290.051969 
L 193.018798 289.99685 
L 193.684438 289.638583 
L 196.346995 288.894488 
L 197.345455 288.481102 
L 198.011094 288.26063 
L 198.676733 288.150394 
L 199.342373 287.985039 
L 200.008012 287.792126 
L 200.340832 287.792126 
L 200.673652 287.626772 
L 201.339291 287.544094 
L 201.672111 287.406299 
L 203.33621 287.323622 
L 203.669029 287.240945 
L 204.334669 286.855118 
L 205.333128 286.469291 
L 205.998767 286.083465 
L 206.997227 285.614961 
L 208.328505 284.925984 
L 208.661325 284.540157 
L 209.326965 283.382677 
L 210.325424 283.051969 
L 210.658243 282.776378 
L 211.656703 282.41811 
L 211.989522 282.059843 
L 212.987982 281.618898 
L 213.320801 281.425984 
L 214.9849 279.166142 
L 216.981818 277.953543 
L 218.313097 276.630709 
L 218.978737 275.225197 
L 220.975655 273.544094 
L 221.974114 272.607087 
L 222.639753 271.697638 
L 223.305393 271.174016 
L 224.303852 270.485039 
L 224.636672 270.154331 
L 225.302311 269.933858 
L 226.63359 269.079528 
L 226.96641 268.914173 
L 228.630508 267.233071 
L 229.296148 266.929921 
L 229.961787 266.433858 
L 230.294607 266.240945 
L 230.627427 266.185827 
L 235.619723 262.988976 
L 235.952542 262.933858 
L 236.285362 262.658268 
L 237.283821 262.3 
L 239.613559 261.390551 
L 239.946379 261.335433 
L 240.612018 260.646457 
L 241.610478 260.095276 
L 242.276117 259.626772 
L 242.941757 259.406299 
L 244.605855 258.303937 
L 246.602773 257.697638 
L 247.268413 257.256693 
L 248.599692 256.925984 
L 249.930971 256.071654 
L 253.259168 254.72126 
L 253.924807 254.583465 
L 254.590447 254.280315 
L 256.920185 253.343307 
L 257.918644 253.150394 
L 258.584284 252.874803 
L 260.248382 251.965354 
L 261.579661 251.193701 
L 264.242219 249.981102 
L 264.575039 249.925984 
L 265.240678 249.485039 
L 265.906317 249.292126 
L 266.904777 248.851181 
L 268.568875 248.465354 
L 268.901695 248.272441 
L 269.234515 247.941732 
L 269.567334 247.280315 
L 270.898613 246.894488 
L 272.229892 246.233071 
L 275.22527 244.8 
L 275.890909 244.634646 
L 276.889368 244.083465 
L 277.555008 243.862992 
L 278.553467 243.366929 
L 279.551926 242.622835 
L 281.216025 242.292126 
L 281.881664 242.016535 
L 282.214484 241.988976 
L 282.547304 241.713386 
L 283.212943 241.465354 
L 284.877042 240.748819 
L 285.209861 240.473228 
L 285.542681 240.362992 
L 286.20832 239.949606 
L 287.872419 239.288189 
L 289.869337 237.744882 
L 290.202157 237.689764 
L 290.534977 237.083465 
L 290.867797 236.945669 
L 291.200616 236.64252 
L 291.533436 236.587402 
L 292.199076 236.118898 
L 292.864715 235.870866 
L 294.528814 234.740945 
L 295.860092 233.99685 
L 296.525732 233.803937 
L 297.191371 233.390551 
L 297.524191 232.756693 
L 298.189831 232.205512 
L 298.85547 231.929921 
L 299.18829 231.68189 
L 299.521109 231.599213 
L 300.186749 231.240945 
L 301.518028 230.524409 
L 302.183667 229.890551 
L 302.849307 229.284252 
L 303.514946 228.843307 
L 304.180586 228.209449 
L 304.846225 227.658268 
L 305.179045 227.492913 
L 305.844684 226.776378 
L 306.843143 226.280315 
L 307.508783 225.866929 
L 307.841602 225.756693 
L 308.174422 225.481102 
L 308.507242 225.425984 
L 311.502619 223.772441 
L 312.501079 223.49685 
L 313.832357 222.835433 
L 315.163636 222.256693 
L 315.829276 221.925984 
L 317.160555 221.18189 
L 317.493374 220.961417 
L 318.159014 219.555906 
L 318.824653 218.756693 
L 319.823112 218.205512 
L 320.488752 217.902362 
L 320.821572 217.847244 
L 321.487211 217.516535 
L 323.15131 216.882677 
L 323.816949 216.414173 
L 324.482589 216.22126 
L 326.479507 214.898425 
L 327.145146 214.237008 
L 328.143606 213.713386 
L 328.809245 213.3 
L 330.140524 212.500787 
L 330.473344 212.41811 
L 330.806163 212.14252 
L 333.135901 211.315748 
L 333.468721 211.067717 
L 334.134361 210.847244 
L 337.795378 208.945669 
L 338.461017 208.394488 
L 339.126656 208.201575 
L 339.459476 207.870866 
L 339.792296 207.815748 
L 340.457935 207.264567 
L 342.122034 206.189764 
L 342.787673 205.969291 
L 343.120493 205.748819 
L 343.786133 205.528346 
L 344.784592 205.032283 
L 345.783051 204.674016 
L 346.44869 204.56378 
L 347.447149 204.150394 
L 349.444068 203.516535 
L 350.442527 202.772441 
L 351.108166 202.386614 
L 352.439445 201.697638 
L 353.437904 200.953543 
L 354.103544 200.788189 
L 355.102003 200.126772 
L 358.097381 199.024409 
L 358.76302 198.776378 
L 360.094299 198.473228 
L 360.759938 198.252756 
L 364.420955 197.150394 
L 366.417874 196.737008 
L 367.416333 196.544094 
L 369.413251 195.965354 
L 370.078891 195.662205 
L 370.41171 195.524409 
L 371.07735 195.414173 
L 375.736826 193.815748 
L 376.069646 193.429921 
L 378.066564 192.548031 
L 379.397843 192.079528 
L 379.730663 191.859055 
L 381.394761 191.335433 
L 381.727581 191.087402 
L 382.060401 191.004724 
L 382.39322 190.701575 
L 383.39168 190.508661 
L 384.057319 190.177953 
L 384.390139 189.737008 
L 391.046533 188.138583 
L 391.379353 188.138583 
L 392.710632 187.697638 
L 395.37319 186.925984 
L 398.701387 185.768504 
L 399.034206 185.520472 
L 400.698305 184.99685 
L 402.029584 184.362992 
L 403.360863 184.197638 
L 411.015716 181.138583 
L 412.679815 180.670079 
L 413.345455 180.311811 
L 414.343914 180.06378 
L 416.008012 178.768504 
L 416.340832 178.685827 
L 417.006471 178.272441 
L 418.33775 177.666142 
L 418.67057 177.583465 
L 419.33621 177.225197 
L 419.669029 177.114961 
L 420.334669 176.756693 
L 421.333128 176.398425 
L 422.331587 175.874803 
L 424.994145 174.441732 
L 425.659784 174.138583 
L 425.992604 173.862992 
L 426.991063 173.422047 
L 428.322342 172.705512 
L 429.653621 172.154331 
L 431.983359 171.244882 
L 432.648998 171.162205 
L 432.981818 170.914173 
L 434.645917 170.528346 
L 436.642835 169.481102 
L 440.969492 167.441732 
L 441.967951 167.083465 
L 442.30077 166.835433 
L 442.96641 166.752756 
L 443.29923 166.532283 
L 443.964869 166.422047 
L 447.625886 164.988976 
L 449.622804 164.382677 
L 450.621263 163.941732 
L 451.286903 163.555906 
L 452.618182 162.811811 
L 453.283821 162.646457 
L 453.616641 162.425984 
L 453.949461 162.370866 
L 455.613559 161.488976 
L 459.940216 159.752756 
L 460.273035 159.697638 
L 461.604314 159.008661 
L 462.269954 158.870866 
L 463.268413 158.264567 
L 464.932512 157.492913 
L 465.598151 157.134646 
L 466.26379 156.941732 
L 468.260709 156.032283 
L 469.924807 155.56378 
L 470.590447 155.067717 
L 471.256086 154.37874 
L 472.254545 153.855118 
L 473.253005 153.579528 
L 473.585824 153.303937 
L 474.251464 153.083465 
L 475.249923 152.366929 
L 475.915562 152.174016 
L 476.581202 151.788189 
L 477.579661 151.540157 
L 486.898613 147.599213 
L 487.231433 147.351181 
L 487.564253 147.268504 
L 488.229892 146.910236 
L 488.895532 146.717323 
L 489.228351 146.386614 
L 490.22681 145.973228 
L 490.55963 145.91811 
L 491.890909 145.256693 
L 492.889368 144.925984 
L 493.887827 144.540157 
L 494.886287 144.237008 
L 495.219106 144.18189 
L 495.884746 143.796063 
L 496.217565 143.658268 
L 496.550385 143.382677 
L 497.548844 143.107087 
L 498.214484 142.831496 
L 498.880123 142.528346 
L 500.211402 141.949606 
L 502.54114 141.343307 
L 503.20678 141.067717 
L 505.203698 140.68189 
L 506.534977 140.240945 
L 507.866256 139.717323 
L 510.195994 138.229134 
L 512.192912 137.567717 
L 512.858552 137.154331 
L 515.18829 136.3 
L 516.186749 135.969291 
L 516.852388 135.583465 
L 517.518028 135.445669 
L 517.850847 135.252756 
L 518.849307 135.004724 
L 520.180586 134.343307 
L 520.846225 134.067717 
L 522.177504 133.516535 
L 522.510324 133.185827 
L 523.175963 132.965354 
L 523.841602 132.607087 
L 525.172881 132.303937 
L 527.1698 131.752756 
L 527.502619 131.725197 
L 528.501079 131.311811 
L 529.832357 130.925984 
L 530.497997 130.374803 
L 531.829276 129.575591 
L 532.827735 129.244882 
L 535.823112 127.701575 
L 536.155932 127.425984 
L 538.152851 126.819685 
L 538.81849 126.544094 
L 539.816949 126.185827 
L 540.149769 125.882677 
L 542.479507 125.000787 
L 543.477966 124.532283 
L 543.810786 124.504724 
L 544.476425 124.229134 
L 545.807704 123.622835 
L 548.470262 122.851181 
L 549.468721 122.382677 
L 550.8 121.99685 
L 551.465639 121.886614 
L 552.796918 121.225197 
L 553.462558 121.087402 
L 554.793837 120.508661 
L 556.457935 120.012598 
L 556.790755 119.985039 
L 557.789214 119.571654 
L 558.454854 119.406299 
L 558.787673 119.185827 
L 559.786133 118.992913 
L 561.450231 118.49685 
L 562.78151 118.055906 
L 565.111248 117.394488 
L 565.444068 117.229134 
L 566.109707 117.146457 
L 567.773806 116.815748 
L 568.439445 116.485039 
L 569.105085 116.154331 
L 570.436364 115.713386 
L 574.76302 114.032283 
L 575.761479 113.674016 
L 577.425578 112.764567 
L 578.091217 112.68189 
L 580.420955 111.992913 
L 582.085054 111.634646 
L 588.408629 109.071654 
L 589.074268 108.961417 
L 589.739908 108.823622 
L 590.072727 108.823622 
L 591.071186 108.492913 
L 592.735285 107.99685 
L 593.733744 107.638583 
L 596.063482 107.14252 
L 596.396302 106.949606 
L 597.727581 106.784252 
L 598.060401 106.618898 
L 598.39322 106.591339 
L 599.39168 106.095276 
L 600.722958 105.654331 
L 605.382435 104.22126 
L 605.715254 104.193701 
L 606.713713 103.807874 
L 607.379353 103.697638 
L 609.709091 102.815748 
L 612.704468 102.209449 
L 613.370108 101.906299 
L 614.035747 101.713386 
L 614.701387 101.107087 
L 616.365485 100.445669 
L 616.698305 100.41811 
L 617.363945 100.059843 
L 618.029584 99.894488 
L 620.026502 99.343307 
L 620.692142 98.985039 
L 621.024961 98.902362 
L 622.023421 98.323622 
L 622.35624 98.240945 
L 622.68906 97.992913 
L 624.353159 97.49685 
L 626.017257 96.725197 
L 626.682897 96.311811 
L 627.348536 96.03622 
L 628.679815 95.485039 
L 630.343914 94.87874 
L 630.676733 94.60315 
L 631.009553 94.548031 
L 631.675193 94.107087 
L 632.673652 93.803937 
L 634.004931 93.225197 
L 634.67057 93.059843 
L 636.667488 92.398425 
L 637.333128 91.902362 
L 637.665948 91.902362 
L 638.997227 91.406299 
L 640.328505 91.130709 
L 641.659784 90.524409 
L 642.325424 90.414173 
L 644.322342 89.807874 
L 644.987982 89.256693 
L 646.31926 88.788189 
L 646.9849 88.567717 
L 647.650539 88.264567 
L 649.314638 87.823622 
L 652.310015 86.969291 
L 653.641294 86.473228 
L 654.972573 86.170079 
L 657.302311 85.481102 
L 657.967951 85.343307 
L 660.630508 84.323622 
L 661.296148 84.185827 
L 662.627427 83.937795 
L 663.293066 83.827559 
L 664.624345 83.276378 
L 665.289985 83.083465 
L 665.955624 82.973228 
L 667.286903 82.559843 
L 667.619723 82.559843 
L 668.285362 82.174016 
L 671.613559 81.237008 
L 680.266872 77.599213 
L 680.599692 77.37874 
L 680.932512 77.296063 
L 681.265331 77.075591 
L 681.598151 77.020472 
L 682.26379 76.607087 
L 684.260709 76.193701 
L 684.926348 75.835433 
L 685.591988 75.614961 
L 686.590447 75.256693 
L 688.254545 74.677953 
L 688.920185 74.319685 
L 690.251464 73.768504 
L 692.248382 73.162205 
L 694.2453 72.886614 
L 695.24376 72.666142 
L 695.576579 72.638583 
L 696.575039 72.087402 
L 697.240678 71.866929 
L 697.906317 71.701575 
L 698.571957 71.56378 
L 699.237596 71.233071 
L 704.229892 69.248819 
L 705.561171 68.945669 
L 706.22681 68.725197 
L 706.55963 68.725197 
L 706.89245 68.559843 
L 708.556549 68.33937 
L 708.889368 68.091339 
L 710.220647 67.76063 
L 710.553467 67.485039 
L 710.886287 67.45748 
L 711.551926 67.154331 
L 711.884746 67.071654 
L 712.550385 66.685827 
L 715.212943 65.41811 
L 715.878582 65.14252 
L 716.877042 64.83937 
L 722.202157 63.406299 
L 723.200616 63.10315 
L 723.866256 63.048031 
L 726.528814 62.193701 
L 727.194453 62.166142 
L 728.858552 61.64252 
L 729.191371 61.311811 
L 730.52265 60.981102 
L 731.18829 60.843307 
L 731.521109 60.540157 
L 732.186749 60.319685 
L 732.519569 60.319685 
L 733.185208 60.044094 
L 733.850847 59.988976 
L 737.511864 59.024409 
L 738.510324 58.638583 
L 739.508783 58.280315 
L 741.172881 57.701575 
L 741.838521 57.343307 
L 742.50416 57.177953 
L 742.83698 56.95748 
L 743.835439 56.737008 
L 744.168259 56.433858 
L 745.166718 56.268504 
L 747.163636 55.8 
L 747.163636 55.8 
" clip-path="url(#p72efc7a78e)" style="fill: none; stroke: #1f77b4; stroke-width: 1.5; stroke-linecap: square"/>
   </g>
   <g id="line2d_26">
    <path d="M 138.769183 307.8 
L 142.097381 307.689764 
L 144.759938 307.579528 
L 146.424037 307.469291 
L 154.74453 306.890551 
L 157.739908 306.780315 
L 159.404006 306.752756 
L 163.730663 306.64252 
L 165.727581 306.587402 
L 170.387057 306.477165 
L 174.048074 306.284252 
L 178.70755 306.174016 
L 183.367026 305.898425 
L 186.029584 305.788189 
L 188.692142 305.677953 
L 190.023421 305.567717 
L 196.014176 305.18189 
L 198.343914 305.071654 
L 203.669029 304.740945 
L 207.662866 304.630709 
L 208.661325 304.548031 
L 210.991063 304.437795 
L 213.986441 304.051969 
L 217.980277 303.611024 
L 219.644376 303.41811 
L 221.974114 303.307874 
L 240.944838 301.847244 
L 243.274576 301.764567 
L 245.271495 301.544094 
L 248.932512 301.433858 
L 249.598151 301.351181 
L 254.923267 301.240945 
L 256.920185 301.185827 
L 259.915562 301.075591 
L 262.2453 300.992913 
L 264.242219 300.910236 
L 265.240678 300.827559 
L 268.236055 300.744882 
L 269.900154 300.551969 
L 271.897072 300.469291 
L 272.895532 300.331496 
L 277.555008 300.248819 
L 279.219106 300.083465 
L 281.216025 300.000787 
L 283.212943 299.780315 
L 286.54114 299.670079 
L 288.870878 299.587402 
L 289.869337 299.504724 
L 290.867797 299.449606 
L 293.197535 299.394488 
L 293.863174 299.284252 
L 296.525732 299.174016 
L 297.524191 299.091339 
L 301.518028 298.981102 
L 310.50416 298.347244 
L 312.501079 298.237008 
L 314.497997 298.18189 
L 318.491834 298.126772 
L 319.157473 298.044094 
L 324.482589 297.933858 
L 329.474884 297.630709 
L 332.803082 297.520472 
L 334.134361 297.382677 
L 339.126656 297.272441 
L 341.123575 297.217323 
L 345.783051 297.107087 
L 351.440986 296.748819 
L 356.433282 296.638583 
L 358.097381 296.611024 
L 368.747612 296.500787 
L 369.746071 296.445669 
L 378.399384 296.335433 
L 379.397843 296.280315 
L 390.713713 296.170079 
L 392.377812 296.14252 
L 410.350077 296.032283 
L 414.011094 295.83937 
L 416.340832 295.729134 
L 419.00339 295.618898 
L 423.330046 295.508661 
L 426.325424 295.370866 
L 428.655162 295.288189 
L 429.653621 295.205512 
L 437.308475 295.095276 
L 439.638213 295.012598 
L 442.96641 294.902362 
L 443.964869 294.847244 
L 448.624345 294.737008 
L 450.288444 294.709449 
L 455.946379 294.626772 
L 457.610478 294.461417 
L 461.271495 294.37874 
L 462.269954 294.240945 
L 466.92943 294.130709 
L 468.926348 294.075591 
L 470.923267 293.965354 
L 471.588906 293.855118 
L 475.582743 293.744882 
L 476.248382 293.662205 
L 479.909399 293.551969 
L 481.573498 293.524409 
L 486.565794 293.414173 
L 488.562712 293.359055 
L 495.219106 293.276378 
L 496.217565 293.22126 
L 502.20832 293.111024 
L 504.538059 293.028346 
L 512.192912 292.91811 
L 514.85547 292.807874 
L 521.511864 292.697638 
L 525.505701 292.477165 
L 530.830817 292.366929 
L 533.160555 292.284252 
L 542.146687 292.174016 
L 544.476425 292.091339 
L 550.46718 291.981102 
L 552.131279 291.953543 
L 556.790755 291.843307 
L 558.787673 291.788189 
L 569.437904 291.677953 
L 572.100462 291.567717 
L 575.761479 291.45748 
L 578.091217 291.374803 
L 582.417874 291.264567 
L 584.747612 291.18189 
L 589.407088 291.071654 
L 591.404006 291.016535 
L 597.061941 290.906299 
L 599.724499 290.796063 
L 610.37473 290.685827 
L 612.704468 290.60315 
L 618.695223 290.492913 
L 620.359322 290.465354 
L 624.685978 290.355118 
L 627.015716 290.272441 
L 631.342373 290.162205 
L 633.006471 290.134646 
L 645.653621 290.024409 
L 646.65208 289.969291 
L 658.63359 289.859055 
L 660.297689 289.831496 
L 670.28228 289.72126 
L 671.946379 289.693701 
L 679.268413 289.583465 
L 680.932512 289.555906 
L 695.909399 289.445669 
L 697.906317 289.390551 
L 711.219106 289.280315 
L 713.216025 289.225197 
L 718.54114 289.114961 
L 720.205239 289.087402 
L 725.197535 289.004724 
L 726.195994 288.949606 
L 743.502619 288.866929 
L 744.501079 288.811811 
L 747.163636 288.811811 
L 747.163636 288.811811 
" clip-path="url(#p72efc7a78e)" style="fill: none; stroke: #ff7f0e; stroke-width: 1.5; stroke-linecap: square"/>
   </g>
   <g id="patch_3">
    <path d="M 108 320.4 
L 108 43.2 
" style="fill: none; stroke: #a9a9a9; stroke-width: 0.8; stroke-linejoin: miter; stroke-linecap: square"/>
   </g>
   <g id="patch_4">
    <path d="M 777.6 320.4 
L 777.6 43.2 
" style="fill: none"/>
   </g>
   <g id="patch_5">
    <path d="M 108 320.4 
L 777.6 320.4 
" style="fill: none; stroke: #a9a9a9; stroke-width: 0.8; stroke-linejoin: miter; stroke-linecap: square"/>
   </g>
   <g id="patch_6">
    <path d="M 108 43.2 
L 777.6 43.2 
" style="fill: none"/>
   </g>
   <g id="text_13">
    <!-- get_subscribe history -->
    <g style="fill: #a9a9a9" transform="translate(378.6075 37.2) scale(0.12 -0.12)">
     <defs>
      <path id="DejaVuSans-4a" d="M 2906 1791 
Q 2906 2416 2648 2759 
Q 2391 3103 1925 3103 
Q 1463 3103 1205 2759 
Q 947 2416 947 1791 
Q 947 1169 1205 825 
Q 1463 481 1925 481 
Q 2391 481 2648 825 
Q 2906 1169 2906 1791 
z
M 3481 434 
Q 3481 -459 3084 -895 
Q 2688 -1331 1869 -1331 
Q 1566 -1331 1297 -1286 
Q 1028 -1241 775 -1147 
L 775 -588 
Q 1028 -725 1275 -790 
Q 1522 -856 1778 -856 
Q 2344 -856 2625 -561 
Q 2906 -266 2906 331 
L 2906 616 
Q 2728 306 2450 153 
Q 2172 0 1784 0 
Q 1141 0 747 490 
Q 353 981 353 1791 
Q 353 2603 747 3093 
Q 1141 3584 1784 3584 
Q 2172 3584 2450 3431 
Q 2728 3278 2906 2969 
L 2906 3500 
L 3481 3500 
L 3481 434 
z
" transform="scale(0.015625)"/>
      <path id="DejaVuSans-48" d="M 3597 1894 
L 3597 1613 
L 953 1613 
Q 991 1019 1311 708 
Q 1631 397 2203 397 
Q 2534 397 2845 478 
Q 3156 559 3463 722 
L 3463 178 
Q 3153 47 2828 -22 
Q 2503 -91 2169 -91 
Q 1331 -91 842 396 
Q 353 884 353 1716 
Q 353 2575 817 3079 
Q 1281 3584 2069 3584 
Q 2775 3584 3186 3129 
Q 3597 2675 3597 1894 
z
M 3022 2063 
Q 3016 2534 2758 2815 
Q 2500 3097 2075 3097 
Q 1594 3097 1305 2825 
Q 1016 2553 972 2059 
L 3022 2063 
z
" transform="scale(0.015625)"/>
      <path id="DejaVuSans-57" d="M 1172 4494 
L 1172 3500 
L 2356 3500 
L 2356 3053 
L 1172 3053 
L 1172 1153 
Q 1172 725 1289 603 
Q 1406 481 1766 481 
L 2356 481 
L 2356 0 
L 1766 0 
Q 1100 0 847 248 
Q 594 497 594 1153 
L 594 3053 
L 172 3053 
L 172 3500 
L 594 3500 
L 594 4494 
L 1172 4494 
z
" transform="scale(0.015625)"/>
      <path id="DejaVuSans-42" d="M 3263 -1063 
L 3263 -1509 
L -63 -1509 
L -63 -1063 
L 3263 -1063 
z
" transform="scale(0.015625)"/>
      <path id="DejaVuSans-56" d="M 2834 3397 
L 2834 2853 
Q 2591 2978 2328 3040 
Q 2066 3103 1784 3103 
Q 1356 3103 1142 2972 
Q 928 2841 928 2578 
Q 928 2378 1081 2264 
Q 1234 2150 1697 2047 
L 1894 2003 
Q 2506 1872 2764 1633 
Q 3022 1394 3022 966 
Q 3022 478 2636 193 
Q 2250 -91 1575 -91 
Q 1294 -91 989 -36 
Q 684 19 347 128 
L 347 722 
Q 666 556 975 473 
Q 1284 391 1588 391 
Q 1994 391 2212 530 
Q 2431 669 2431 922 
Q 2431 1156 2273 1281 
Q 2116 1406 1581 1522 
L 1381 1569 
Q 847 1681 609 1914 
Q 372 2147 372 2553 
Q 372 3047 722 3315 
Q 1072 3584 1716 3584 
Q 2034 3584 2315 3537 
Q 2597 3491 2834 3397 
z
" transform="scale(0.015625)"/>
      <path id="DejaVuSans-58" d="M 544 1381 
L 544 3500 
L 1119 3500 
L 1119 1403 
Q 1119 906 1312 657 
Q 1506 409 1894 409 
Q 2359 409 2629 706 
Q 2900 1003 2900 1516 
L 2900 3500 
L 3475 3500 
L 3475 0 
L 2900 0 
L 2900 538 
Q 2691 219 2414 64 
Q 2138 -91 1772 -91 
Q 1169 -91 856 284 
Q 544 659 544 1381 
z
M 1991 3584 
L 1991 3584 
z
" transform="scale(0.015625)"/>
      <path id="DejaVuSans-45" d="M 3116 1747 
Q 3116 2381 2855 2742 
Q 2594 3103 2138 3103 
Q 1681 3103 1420 2742 
Q 1159 2381 1159 1747 
Q 1159 1113 1420 752 
Q 1681 391 2138 391 
Q 2594 391 2855 752 
Q 3116 1113 3116 1747 
z
M 1159 2969 
Q 1341 3281 1617 3432 
Q 1894 3584 2278 3584 
Q 2916 3584 3314 3078 
Q 3713 2572 3713 1747 
Q 3713 922 3314 415 
Q 2916 -91 2278 -91 
Q 1894 -91 1617 61 
Q 1341 213 1159 525 
L 1159 0 
L 581 0 
L 581 4863 
L 1159 4863 
L 1159 2969 
z
" transform="scale(0.015625)"/>
      <path id="DejaVuSans-46" d="M 3122 3366 
L 3122 2828 
Q 2878 2963 2633 3030 
Q 2388 3097 2138 3097 
Q 1578 3097 1268 2742 
Q 959 2388 959 1747 
Q 959 1106 1268 751 
Q 1578 397 2138 397 
Q 2388 397 2633 464 
Q 2878 531 3122 666 
L 3122 134 
Q 2881 22 2623 -34 
Q 2366 -91 2075 -91 
Q 1284 -91 818 406 
Q 353 903 353 1747 
Q 353 2603 823 3093 
Q 1294 3584 2113 3584 
Q 2378 3584 2631 3529 
Q 2884 3475 3122 3366 
z
" transform="scale(0.015625)"/>
      <path id="DejaVuSans-55" d="M 2631 2963 
Q 2534 3019 2420 3045 
Q 2306 3072 2169 3072 
Q 1681 3072 1420 2755 
Q 1159 2438 1159 1844 
L 1159 0 
L 581 0 
L 581 3500 
L 1159 3500 
L 1159 2956 
Q 1341 3275 1631 3429 
Q 1922 3584 2338 3584 
Q 2397 3584 2469 3576 
Q 2541 3569 2628 3553 
L 2631 2963 
z
" transform="scale(0.015625)"/>
      <path id="DejaVuSans-4c" d="M 603 3500 
L 1178 3500 
L 1178 0 
L 603 0 
L 603 3500 
z
M 603 4863 
L 1178 4863 
L 1178 4134 
L 603 4134 
L 603 4863 
z
" transform="scale(0.015625)"/>
      <path id="DejaVuSans-3" transform="scale(0.015625)"/>
      <path id="DejaVuSans-4b" d="M 3513 2113 
L 3513 0 
L 2938 0 
L 2938 2094 
Q 2938 2591 2744 2837 
Q 2550 3084 2163 3084 
Q 1697 3084 1428 2787 
Q 1159 2491 1159 1978 
L 1159 0 
L 581 0 
L 581 4863 
L 1159 4863 
L 1159 2956 
Q 1366 3272 1645 3428 
Q 1925 3584 2291 3584 
Q 2894 3584 3203 3211 
Q 3513 2838 3513 2113 
z
" transform="scale(0.015625)"/>
      <path id="DejaVuSans-52" d="M 1959 3097 
Q 1497 3097 1228 2736 
Q 959 2375 959 1747 
Q 959 1119 1226 758 
Q 1494 397 1959 397 
Q 2419 397 2687 759 
Q 2956 1122 2956 1747 
Q 2956 2369 2687 2733 
Q 2419 3097 1959 3097 
z
M 1959 3584 
Q 2709 3584 3137 3096 
Q 3566 2609 3566 1747 
Q 3566 888 3137 398 
Q 2709 -91 1959 -91 
Q 1206 -91 779 398 
Q 353 888 353 1747 
Q 353 2609 779 3096 
Q 1206 3584 1959 3584 
z
" transform="scale(0.015625)"/>
      <path id="DejaVuSans-5c" d="M 2059 -325 
Q 1816 -950 1584 -1140 
Q 1353 -1331 966 -1331 
L 506 -1331 
L 506 -850 
L 844 -850 
Q 1081 -850 1212 -737 
Q 1344 -625 1503 -206 
L 1606 56 
L 191 3500 
L 800 3500 
L 1894 763 
L 2988 3500 
L 3597 3500 
L 2059 -325 
z
" transform="scale(0.015625)"/>
     </defs>
     <use xlink:href="#DejaVuSans-4a"/>
     <use xlink:href="#DejaVuSans-48" transform="translate(63.484375 0)"/>
     <use xlink:href="#DejaVuSans-57" transform="translate(125.015625 0)"/>
     <use xlink:href="#DejaVuSans-42" transform="translate(164.21875 0)"/>
     <use xlink:href="#DejaVuSans-56" transform="translate(214.21875 0)"/>
     <use xlink:href="#DejaVuSans-58" transform="translate(266.3125 0)"/>
     <use xlink:href="#DejaVuSans-45" transform="translate(329.6875 0)"/>
     <use xlink:href="#DejaVuSans-56" transform="translate(393.171875 0)"/>
     <use xlink:href="#DejaVuSans-46" transform="translate(445.265625 0)"/>
     <use xlink:href="#DejaVuSans-55" transform="translate(500.25 0)"/>
     <use xlink:href="#DejaVuSans-4c" transform="translate(541.359375 0)"/>
     <use xlink:href="#DejaVuSans-45" transform="translate(569.140625 0)"/>
     <use xlink:href="#DejaVuSans-48" transform="translate(632.625 0)"/>
     <use xlink:href="#DejaVuSans-3" transform="translate(694.15625 0)"/>
     <use xlink:href="#DejaVuSans-4b" transform="translate(725.9375 0)"/>
     <use xlink:href="#DejaVuSans-4c" transform="translate(789.3125 0)"/>
     <use xlink:href="#DejaVuSans-56" transform="translate(817.09375 0)"/>
     <use xlink:href="#DejaVuSans-57" transform="translate(869.1875 0)"/>
     <use xlink:href="#DejaVuSans-52" transform="translate(908.390625 0)"/>
     <use xlink:href="#DejaVuSans-55" transform="translate(969.578125 0)"/>
     <use xlink:href="#DejaVuSans-5c" transform="translate(1010.6875 0)"/>
    </g>
   </g>
   <g id="legend_1">
    <g id="line2d_27">
     <path d="M 815.08 328.498438 
L 825.08 328.498438 
L 835.08 328.498438 
" style="fill: none; stroke: #1f77b4; stroke-width: 1.5; stroke-linecap: square"/>
    </g>
    <g id="text_14">
     <!-- star -->
     <g style="fill: #a9a9a9" transform="translate(843.08 331.998438) scale(0.1 -0.1)">
      <defs>
       <path id="DejaVuSans-44" d="M 2194 1759 
Q 1497 1759 1228 1600 
Q 959 1441 959 1056 
Q 959 750 1161 570 
Q 1363 391 1709 391 
Q 2188 391 2477 730 
Q 2766 1069 2766 1631 
L 2766 1759 
L 2194 1759 
z
M 3341 1997 
L 3341 0 
L 2766 0 
L 2766 531 
Q 2569 213 2275 61 
Q 1981 -91 1556 -91 
Q 1019 -91 701 211 
Q 384 513 384 1019 
Q 384 1609 779 1909 
Q 1175 2209 1959 2209 
L 2766 2209 
L 2766 2266 
Q 2766 2663 2505 2880 
Q 2244 3097 1772 3097 
Q 1472 3097 1187 3025 
Q 903 2953 641 2809 
L 641 3341 
Q 956 3463 1253 3523 
Q 1550 3584 1831 3584 
Q 2591 3584 2966 3190 
Q 3341 2797 3341 1997 
z
" transform="scale(0.015625)"/>
      </defs>
      <use xlink:href="#DejaVuSans-56"/>
      <use xlink:href="#DejaVuSans-57" transform="translate(52.09375 0)"/>
      <use xlink:href="#DejaVuSans-44" transform="translate(91.296875 0)"/>
      <use xlink:href="#DejaVuSans-55" transform="translate(152.578125 0)"/>
     </g>
    </g>
    <g id="line2d_28">
     <path d="M 815.08 343.499219 
L 825.08 343.499219 
L 835.08 343.499219 
" style="fill: none; stroke: #ff7f0e; stroke-width: 1.5; stroke-linecap: square"/>
    </g>
    <g id="text_15">
     <!-- fork -->
     <g style="fill: #a9a9a9" transform="translate(843.08 346.999219) scale(0.1 -0.1)">
      <defs>
       <path id="DejaVuSans-49" d="M 2375 4863 
L 2375 4384 
L 1825 4384 
Q 1516 4384 1395 4259 
Q 1275 4134 1275 3809 
L 1275 3500 
L 2222 3500 
L 2222 3053 
L 1275 3053 
L 1275 0 
L 697 0 
L 697 3053 
L 147 3053 
L 147 3500 
L 697 3500 
L 697 3744 
Q 697 4328 969 4595 
Q 1241 4863 1831 4863 
L 2375 4863 
z
" transform="scale(0.015625)"/>
       <path id="DejaVuSans-4e" d="M 581 4863 
L 1159 4863 
L 1159 1991 
L 2875 3500 
L 3609 3500 
L 1753 1863 
L 3688 0 
L 2938 0 
L 1159 1709 
L 1159 0 
L 581 0 
L 581 4863 
z
" transform="scale(0.015625)"/>
      </defs>
      <use xlink:href="#DejaVuSans-49"/>
      <use xlink:href="#DejaVuSans-52" transform="translate(35.203125 0)"/>
      <use xlink:href="#DejaVuSans-55" transform="translate(96.390625 0)"/>
      <use xlink:href="#DejaVuSans-4e" transform="translate(137.5 0)"/>
     </g>
    </g>
   </g>
  </g>
 </g>
 <defs>
  <clipPath id="p72efc7a78e">
   <rect x="108" y="43.2" width="669.6" height="277.2"/>
  </clipPath>
 </defs>
</svg>
